<svg id="Layer_3" data-name="Layer 3" xmlns="http://www.w3.org/2000/svg" viewBox="0 0 747.75 405.71"><defs><style>.cls-1{font-size:140px;fill:#fff;font-family:Avenir-Light, Avenir;font-weight:300;}.cls-2{fill:none;stroke:#fff;stroke-miterlimit:10;stroke-width:5px;}</style></defs><title>[VECTOR][WHITE] Driplet and Text Logo</title><text class="cls-1" transform="translate(271.55 269.11)">Driplet</text><g id="Layer_3-2" data-name="Layer 3"><line class="cls-2" x1="122.4" y1="9.3" x2="108.8" y2="69.77"/><line class="cls-2" x1="102.47" y1="89.7" x2="71.53" y2="155.33"/><line class="cls-2" x1="107.4" y1="92.75" x2="110.44" y2="132.59"/><line class="cls-2" x1="115.6" y1="86.65" x2="139.04" y2="103.06"/><line class="cls-2" x1="137.4" y1="59.93" x2="149.59" y2="94.86"/><line class="cls-2" x1="122.4" y1="9.3" x2="129.66" y2="39.54"/><line class="cls-2" x1="165.06" y1="129.31" x2="193.19" y2="190.73"/><line class="cls-2" x1="151.93" y1="129.78" x2="143.49" y2="178.3"/><line class="cls-2" x1="109.04" y1="141.97" x2="82.08" y2="163.07"/><line class="cls-2" x1="61.45" y1="180.41" x2="33.56" y2="221.43"/><line class="cls-2" x1="74.35" y1="181.12" x2="75.52" y2="215.81"/><line class="cls-2" x1="83.02" y1="175.72" x2="120.52" y2="183.93"/><line class="cls-2" x1="115.6" y1="143.85" x2="128.96" y2="176.19"/><line class="cls-2" x1="151.93" y1="129.78" x2="83.25" y2="217.68"/><line class="cls-2" x1="84.42" y1="228.23" x2="113.49" y2="241.36"/><line class="cls-2" x1="132.48" y1="202.45" x2="128.96" y2="234.79"/><line class="cls-2" x1="143.49" y1="199.4" x2="221.79" y2="269.02"/><line class="cls-2" x1="202.56" y1="210.18" x2="228.11" y2="263.63"/><line class="cls-2" x1="195.53" y1="210.65" x2="186.86" y2="252.14"/><line class="cls-2" x1="147.24" y1="190.73" x2="186.62" y2="198.46"/><line class="cls-2" x1="136.23" y1="258.7" x2="219.91" y2="328.09"/><line class="cls-2" x1="233.27" y1="293.4" x2="228.11" y2="324.34"/><line class="cls-2" x1="222.96" y1="288" x2="158.26" y2="318.24"/><line class="cls-2" x1="177.01" y1="282.38" x2="155.45" y2="314.96"/><line class="cls-2" x1="170.92" y1="275.11" x2="89.11" y2="299.02"/><line class="cls-2" x1="77.63" y1="232.92" x2="143.49" y2="314.26"/><line class="cls-2" x1="122.4" y1="261.28" x2="90.05" y2="363.72"/><line class="cls-2" x1="142.79" y1="325.74" x2="93.8" y2="363.95"/><line class="cls-2" x1="78.33" y1="304.88" x2="77.16" y2="363.25"/><line class="cls-2" x1="27.23" y1="337" x2="66.84" y2="370.05"/><line class="cls-2" x1="113.49" y1="253.08" x2="30.04" y2="316.6"/><line class="cls-2" x1="71.77" y1="229.4" x2="26.53" y2="315.9"/><line class="cls-2" x1="15.51" y1="257.77" x2="15.51" y2="312.38"/><line class="cls-2" x1="35.2" y1="250.97" x2="74.81" y2="291.99"/><line class="cls-2" x1="68.02" y1="223.54" x2="39.42" y2="230.34"/><line class="cls-2" x1="74.35" y1="181.12" x2="170.92" y2="257.77"/><line class="cls-2" x1="33.79" y1="327.62" x2="215.22" y2="337.7"/><line class="cls-2" x1="151.93" y1="328.79" x2="158.73" y2="374.73"/><line class="cls-2" x1="221.08" y1="344.73" x2="172.79" y2="383.41"/><line class="cls-2" x1="102" y1="385.05" x2="144.9" y2="388.8"/><circle class="cls-2" cx="121.81" cy="6.84" r="4.34"/><circle class="cls-2" cx="107.4" cy="80.79" r="11.95"/><circle class="cls-2" cx="132.13" cy="49.97" r="9.96"/><circle class="cls-2" cx="155.21" cy="111.73" r="18.99"/><circle class="cls-2" cx="112.9" cy="139.04" r="6.56"/><circle class="cls-2" cx="134" cy="189.2" r="13.95"/><ellipse class="cls-2" cx="70.54" cy="168.05" rx="14.01" ry="14.12"/><circle class="cls-2" cx="199.05" cy="199.87" r="12.31"/><circle class="cls-2" cx="22.07" cy="239.01" r="19.57"/><circle class="cls-2" cx="77.51" cy="223.43" r="9.49"/><circle class="cls-2" cx="21.6" cy="325.98" r="13.36"/><circle class="cls-2" cx="80.91" cy="298.32" r="8.44"/><circle class="cls-2" cx="126.73" cy="247.57" r="14.65"/><circle class="cls-2" cx="182.76" cy="267.26" r="15.12"/><circle class="cls-2" cx="233.15" cy="277.81" r="15.59"/><circle class="cls-2" cx="150.53" cy="320.12" r="9.14"/><circle class="cls-2" cx="83.02" cy="379.66" r="18.99"/><circle class="cls-2" cx="159.67" cy="388.56" r="14.65"/><circle class="cls-2" cx="226.12" cy="335.71" r="11.37"/><line class="cls-2" x1="124.39" y1="56.3" x2="115.72" y2="72"/></g></svg>